HIERARCHY
ROOT mixamorig:Hips
{
	OFFSET -0.000008 104.274872 1.554316
	CHANNELS 6 Xposition Yposition Zposition Xrotation Yrotation Zrotation
	JOINT mixamorig:Spine
	{
		OFFSET -0.000005 10.181595 0.131519
		CHANNELS 6 Xposition Yposition Zposition Xrotation Yrotation Zrotation
		JOINT mixamorig:Spine1
		{
			OFFSET -0.000000 9.893959 -1.470707
			CHANNELS 6 Xposition Yposition Zposition Xrotation Yrotation Zrotation
			JOINT mixamorig:Spine2
			{
				OFFSET -0.000000 9.220757 -1.370641
				CHANNELS 6 Xposition Yposition Zposition Xrotation Yrotation Zrotation
				JOINT mixamorig:Neck
				{
					OFFSET 0.000001 16.740417 -2.049036
					CHANNELS 6 Xposition Yposition Zposition Xrotation Yrotation Zrotation
					JOINT mixamorig:Head
					{
						OFFSET 0.000000 9.617874 1.685006
						CHANNELS 6 Xposition Yposition Zposition Xrotation Yrotation Zrotation
						JOINT mixamorig:HeadTop_End
						{
							OFFSET 0.000002 22.037354 7.501101
							CHANNELS 6 Xposition Yposition Zposition Xrotation Yrotation Zrotation
							End Site
							{
								OFFSET 0.000168 2310.654297 -282.823242
							}
						}
					}
				}
				JOINT mixamorig:RightShoulder
				{
					OFFSET -4.569970 11.014908 -2.160885
					CHANNELS 6 Xposition Yposition Zposition Xrotation Yrotation Zrotation
					JOINT mixamorig:RightArm
					{
						OFFSET -10.592851 -0.524811 -2.232101
						CHANNELS 6 Xposition Yposition Zposition Xrotation Yrotation Zrotation
						JOINT mixamorig:RightForeArm
						{
							OFFSET -27.841511 0.000031 -0.000004
							CHANNELS 6 Xposition Yposition Zposition Xrotation Yrotation Zrotation
							JOINT mixamorig:RightHand
							{
								OFFSET -28.328831 -0.000015 0.000015
								CHANNELS 6 Xposition Yposition Zposition Xrotation Yrotation Zrotation
								JOINT mixamorig:RightHandThumb1
								{
									OFFSET -2.464806 -1.573990 2.681852
									CHANNELS 6 Xposition Yposition Zposition Xrotation Yrotation Zrotation
									JOINT mixamorig:RightHandThumb2
									{
										OFFSET -3.215179 -1.872803 1.924282
										CHANNELS 6 Xposition Yposition Zposition Xrotation Yrotation Zrotation
										JOINT mixamorig:RightHandThumb3
										{
											OFFSET -2.654831 -1.527969 1.512609
											CHANNELS 6 Xposition Yposition Zposition Xrotation Yrotation Zrotation
											JOINT mixamorig:RightHandThumb4
											{
												OFFSET -2.018814 -1.152008 1.108052
												CHANNELS 6 Xposition Yposition Zposition Xrotation Yrotation Zrotation
												End Site
												{
													OFFSET -188.809540 -114.533607 132.431396
												}
											}
										}
									}
								}
								JOINT mixamorig:RightHandIndex1
								{
									OFFSET -9.108284 -0.517868 2.259835
									CHANNELS 6 Xposition Yposition Zposition Xrotation Yrotation Zrotation
									JOINT mixamorig:RightHandIndex2
									{
										OFFSET -3.699989 0.000000 0.001215
										CHANNELS 6 Xposition Yposition Zposition Xrotation Yrotation Zrotation
										JOINT mixamorig:RightHandIndex3
										{
											OFFSET -2.850006 0.000031 -0.000522
											CHANNELS 6 Xposition Yposition Zposition Xrotation Yrotation Zrotation
											JOINT mixamorig:RightHandIndex4
											{
												OFFSET -2.772186 -0.000015 -0.000020
												CHANNELS 6 Xposition Yposition Zposition Xrotation Yrotation Zrotation
												End Site
												{
													OFFSET -277.218445 0.000000 -0.050231
												}
											}
										}
									}
								}
								JOINT mixamorig:RightHandMiddle1
								{
									OFFSET -9.532516 -0.000031 -0.000023
									CHANNELS 6 Xposition Yposition Zposition Xrotation Yrotation Zrotation
									JOINT mixamorig:RightHandMiddle2
									{
										OFFSET -3.700005 -0.000015 0.003713
										CHANNELS 6 Xposition Yposition Zposition Xrotation Yrotation Zrotation
										JOINT mixamorig:RightHandMiddle3
										{
											OFFSET -2.949974 0.000015 -0.002054
											CHANNELS 6 Xposition Yposition Zposition Xrotation Yrotation Zrotation
											JOINT mixamorig:RightHandMiddle4
											{
												OFFSET -2.946640 0.000000 -0.000156
												CHANNELS 6 Xposition Yposition Zposition Xrotation Yrotation Zrotation
												End Site
												{
													OFFSET -294.664337 0.000000 -0.113670
												}
											}
										}
									}
								}
								JOINT mixamorig:RightHandRing1
								{
									OFFSET -9.103600 -0.043076 -1.865134
									CHANNELS 6 Xposition Yposition Zposition Xrotation Yrotation Zrotation
									JOINT mixamorig:RightHandRing2
									{
										OFFSET -3.379288 0.000000 -0.001055
										CHANNELS 6 Xposition Yposition Zposition Xrotation Yrotation Zrotation
										JOINT mixamorig:RightHandRing3
										{
											OFFSET -2.889687 -0.000015 0.000379
											CHANNELS 6 Xposition Yposition Zposition Xrotation Yrotation Zrotation
											JOINT mixamorig:RightHandRing4
											{
												OFFSET -2.638809 -0.000015 0.000941
												CHANNELS 6 Xposition Yposition Zposition Xrotation Yrotation Zrotation
												End Site
												{
													OFFSET -263.880371 0.000000 0.516020
												}
											}
										}
									}
								}
								JOINT mixamorig:RightHandPinky1
								{
									OFFSET -8.076683 -0.486710 -3.806280
									CHANNELS 6 Xposition Yposition Zposition Xrotation Yrotation Zrotation
									JOINT mixamorig:RightHandPinky2
									{
										OFFSET -3.600014 -0.000015 -0.003747
										CHANNELS 6 Xposition Yposition Zposition Xrotation Yrotation Zrotation
										JOINT mixamorig:RightHandPinky3
										{
											OFFSET -2.099983 0.000000 -0.005739
											CHANNELS 6 Xposition Yposition Zposition Xrotation Yrotation Zrotation
											JOINT mixamorig:RightHandPinky4
											{
												OFFSET -2.115768 -0.000031 -0.003680
												CHANNELS 6 Xposition Yposition Zposition Xrotation Yrotation Zrotation
												End Site
												{
													OFFSET -211.577087 0.000000 -0.350686
												}
											}
										}
									}
								}
							}
						}
					}
				}
				JOINT mixamorig:LeftShoulder
				{
					OFFSET 4.570447 11.014725 -2.160855
					CHANNELS 6 Xposition Yposition Zposition Xrotation Yrotation Zrotation
					JOINT mixamorig:LeftArm
					{
						OFFSET 10.592371 -0.524597 -2.232119
						CHANNELS 6 Xposition Yposition Zposition Xrotation Yrotation Zrotation
						JOINT mixamorig:LeftForeArm
						{
							OFFSET 27.841532 -0.000031 0.000026
							CHANNELS 6 Xposition Yposition Zposition Xrotation Yrotation Zrotation
							JOINT mixamorig:LeftHand
							{
								OFFSET 28.328846 -0.000061 0.000022
								CHANNELS 6 Xposition Yposition Zposition Xrotation Yrotation Zrotation
								JOINT mixamorig:LeftHandThumb1
								{
									OFFSET 2.466141 -1.576172 2.681732
									CHANNELS 6 Xposition Yposition Zposition Xrotation Yrotation Zrotation
									JOINT mixamorig:LeftHandThumb2
									{
										OFFSET 3.217812 -1.872070 1.916482
										CHANNELS 6 Xposition Yposition Zposition Xrotation Yrotation Zrotation
										JOINT mixamorig:LeftHandThumb3
										{
											OFFSET 2.656029 -1.528778 1.514513
											CHANNELS 6 Xposition Yposition Zposition Xrotation Yrotation Zrotation
											JOINT mixamorig:LeftHandThumb4
											{
												OFFSET 2.020889 -1.154053 1.115139
												CHANNELS 6 Xposition Yposition Zposition Xrotation Yrotation Zrotation
												End Site
												{
													OFFSET 190.885437 -115.081749 130.048782
												}
											}
										}
									}
								}
								JOINT mixamorig:LeftHandIndex1
								{
									OFFSET 9.109314 -0.518021 2.259871
									CHANNELS 6 Xposition Yposition Zposition Xrotation Yrotation Zrotation
									JOINT mixamorig:LeftHandIndex2
									{
										OFFSET 3.699989 0.000000 -0.000322
										CHANNELS 6 Xposition Yposition Zposition Xrotation Yrotation Zrotation
										JOINT mixamorig:LeftHandIndex3
										{
											OFFSET 2.850006 0.000000 0.000352
											CHANNELS 6 Xposition Yposition Zposition Xrotation Yrotation Zrotation
											JOINT mixamorig:LeftHandIndex4
											{
												OFFSET 2.774864 -0.000031 -0.000027
												CHANNELS 6 Xposition Yposition Zposition Xrotation Yrotation Zrotation
												End Site
												{
													OFFSET 277.486267 0.000000 -0.009857
												}
											}
										}
									}
								}
								JOINT mixamorig:LeftHandMiddle1
								{
									OFFSET 9.533394 0.000061 0.000044
									CHANNELS 6 Xposition Yposition Zposition Xrotation Yrotation Zrotation
									JOINT mixamorig:LeftHandMiddle2
									{
										OFFSET 3.699989 -0.000015 -0.000231
										CHANNELS 6 Xposition Yposition Zposition Xrotation Yrotation Zrotation
										JOINT mixamorig:LeftHandMiddle3
										{
											OFFSET 2.949997 -0.000015 -0.000059
											CHANNELS 6 Xposition Yposition Zposition Xrotation Yrotation Zrotation
											JOINT mixamorig:LeftHandMiddle4
											{
												OFFSET 2.952896 0.000031 0.000063
												CHANNELS 6 Xposition Yposition Zposition Xrotation Yrotation Zrotation
												End Site
												{
													OFFSET 295.289337 0.000000 0.022810
												}
											}
										}
									}
								}
								JOINT mixamorig:LeftHandRing1
								{
									OFFSET 9.104523 -0.042999 -1.865074
									CHANNELS 6 Xposition Yposition Zposition Xrotation Yrotation Zrotation
									JOINT mixamorig:LeftHandRing2
									{
										OFFSET 3.150009 -0.000031 0.000043
										CHANNELS 6 Xposition Yposition Zposition Xrotation Yrotation Zrotation
										JOINT mixamorig:LeftHandRing3
										{
											OFFSET 2.949982 -0.000015 0.000040
											CHANNELS 6 Xposition Yposition Zposition Xrotation Yrotation Zrotation
											JOINT mixamorig:LeftHandRing4
											{
												OFFSET 2.644348 0.000000 0.000057
												CHANNELS 6 Xposition Yposition Zposition Xrotation Yrotation Zrotation
												End Site
												{
													OFFSET 264.434631 0.000000 0.012105
												}
											}
										}
									}
								}
								JOINT mixamorig:LeftHandPinky1
								{
									OFFSET 8.077789 -0.486847 -3.806259
									CHANNELS 6 Xposition Yposition Zposition Xrotation Yrotation Zrotation
									JOINT mixamorig:LeftHandPinky2
									{
										OFFSET 3.599953 0.000031 0.014727
										CHANNELS 6 Xposition Yposition Zposition Xrotation Yrotation Zrotation
										JOINT mixamorig:LeftHandPinky3
										{
											OFFSET 2.100021 0.000015 0.007705
											CHANNELS 6 Xposition Yposition Zposition Xrotation Yrotation Zrotation
											JOINT mixamorig:LeftHandPinky4
											{
												OFFSET 2.125504 0.000031 0.007517
												CHANNELS 6 Xposition Yposition Zposition Xrotation Yrotation Zrotation
												End Site
												{
													OFFSET 212.550781 0.000000 0.625752
												}
											}
										}
									}
								}
							}
						}
					}
				}
			}
		}
	}
	JOINT mixamorig:RightUpLeg
	{
		OFFSET -8.207787 -6.751648 -1.599560
		CHANNELS 6 Xposition Yposition Zposition Xrotation Yrotation Zrotation
		JOINT mixamorig:RightLeg
		{
			OFFSET -0.000002 -44.370117 0.345942
			CHANNELS 6 Xposition Yposition Zposition Xrotation Yrotation Zrotation
			JOINT mixamorig:RightFoot
			{
				OFFSET 0.000003 -44.423679 -3.043532
				CHANNELS 6 Xposition Yposition Zposition Xrotation Yrotation Zrotation
				JOINT mixamorig:RightToeBase
				{
					OFFSET -0.000002 -8.728671 10.710558
					CHANNELS 6 Xposition Yposition Zposition Xrotation Yrotation Zrotation
					JOINT mixamorig:RightToe_End
					{
						OFFSET -0.000001 -0.000679 9.278119
						CHANNELS 6 Xposition Yposition Zposition Xrotation Yrotation Zrotation
						End Site
						{
							OFFSET 0.000000 -0.067690 927.812134
						}
					}
				}
			}
		}
	}
	JOINT mixamorig:LeftUpLeg
	{
		OFFSET 8.207793 -6.751686 -1.599556
		CHANNELS 6 Xposition Yposition Zposition Xrotation Yrotation Zrotation
		JOINT mixamorig:LeftLeg
		{
			OFFSET -0.000004 -44.370014 0.346954
			CHANNELS 6 Xposition Yposition Zposition Xrotation Yrotation Zrotation
			JOINT mixamorig:LeftFoot
			{
				OFFSET -0.000001 -44.423672 -3.044401
				CHANNELS 6 Xposition Yposition Zposition Xrotation Yrotation Zrotation
				JOINT mixamorig:LeftToeBase
				{
					OFFSET -0.000002 -8.728669 10.710558
					CHANNELS 6 Xposition Yposition Zposition Xrotation Yrotation Zrotation
					JOINT mixamorig:LeftToe_End
					{
						OFFSET -0.000003 -0.000679 9.278133
						CHANNELS 6 Xposition Yposition Zposition Xrotation Yrotation Zrotation
						End Site
						{
							OFFSET 0.000000 -0.068021 927.813477
						}
					}
				}
			}
		}
	}
}
MOTION
Frames: 3
Frame Time: 0.033333
0.000006 104.270477 1.554256 0.000010 0.000003 -0.000113 -0.000005 10.181587 0.131522 0.000001 -0.000003 0.000084 -0.000000 9.893967 -1.470711 0.000001 0.000000 -0.000000 -0.000000 9.220802 -1.370642 0.000000 -0.000000 -0.000000 0.000001 16.740433 -2.049030 0.000000 -0.000000 -0.000000 0.000000 9.617859 1.685014 0.000000 0.000000 0.000000 0.000002 22.037384 7.501101 0.000000 -0.000000 0.000000 -4.569968 11.014880 -2.160881 0.000008 0.000001 -0.000038 -10.592865 -0.524671 -2.232029 72.755120 5.992277 -4.416119 -27.841526 0.000020 0.000546 -54.462726 115.697285 78.617547 -28.328835 0.000022 0.000028 -0.000322 -0.000045 0.000006 -2.464444 -1.573947 2.682405 -26.810058 -153.945156 33.304436 -3.215239 -1.872520 1.924641 153.299662 34.529256 23.633194 -2.654956 -1.527878 1.513090 152.519012 25.817022 -37.100167 -2.018827 -1.151979 1.108069 -0.000002 0.000000 0.000005 -9.108399 -0.517569 2.260173 107.198815 18.964056 -25.592415 -3.700086 0.000301 0.001550 104.261929 15.814654 -20.223029 -2.850083 0.000364 -0.000199 104.123147 11.663411 -14.927261 -2.772174 0.000000 -0.000021 -0.000000 0.000001 0.000001 -9.532616 0.000245 0.000281 101.700417 19.947291 -24.556938 -3.700080 0.000331 0.004014 101.758938 14.253622 -17.361600 -2.950049 0.000322 -0.001789 103.616620 11.280968 -14.302474 -2.946637 0.000013 -0.000151 -0.000002 0.000000 0.000002 -9.103715 -0.042783 -1.864805 101.267001 21.566910 -26.083299 -3.379330 0.000315 -0.000757 101.691989 10.796503 -13.261257 -2.889754 0.000358 0.000659 106.758480 5.429545 -7.361049 -2.638812 -0.000021 0.000946 -0.000000 -0.000001 0.000004 -8.076768 -0.486417 -3.805979 93.903319 21.565767 -22.881451 -3.600049 0.000278 -0.003465 99.070617 9.992492 -11.279431 -2.100008 0.000318 -0.005452 102.868940 4.657924 -5.568857 -2.115780 -0.000054 -0.003687 -0.000002 -0.000001 -0.000004 4.570446 11.014691 -2.160851 -0.000018 0.000010 -0.000021 10.592359 -0.524528 -2.232299 69.786290 8.730528 -6.094938 27.841839 0.000130 -0.000236 105.726759 -62.839755 77.783246 28.328833 -0.000030 0.000021 0.000019 -0.000089 -0.000000 2.466000 -1.576173 2.681898 -35.227933 152.407434 -15.359840 3.217802 -1.871730 1.916356 152.640426 -31.830403 -7.041131 2.656103 -1.528618 1.514422 143.379946 -27.812016 32.742322 2.020902 -1.154084 1.115142 0.000001 0.000003 0.000004 9.109368 -0.517826 2.259739 92.614599 -14.137564 14.778053 3.700056 0.000181 -0.000463 92.025365 -15.487346 16.055548 2.850063 0.000220 0.000206 92.348727 -14.142052 14.726243 2.774882 -0.000030 -0.000029 0.000003 -0.000002 -0.000001 9.533439 0.000239 -0.000097 94.358278 -13.957965 15.040688 3.700061 0.000196 -0.000364 95.684229 -16.678726 18.389774 2.950076 0.000161 -0.000161 96.907578 -19.237301 21.656826 2.952854 -0.000012 0.000059 0.000001 -0.000001 -0.000004 9.104578 -0.042820 -1.865235 92.847597 -14.989699 15.746497 3.150065 0.000199 -0.000057 97.211589 -17.862750 20.220910 2.950036 0.000177 -0.000043 99.495530 -17.638528 20.771678 2.644337 0.000029 0.000056 0.000002 0.000001 0.000001 8.077827 -0.486732 -3.806397 77.052054 -19.281800 15.890771 3.600004 0.000173 0.014573 76.389129 -15.523598 12.656779 2.100033 0.000178 0.007551 81.278452 -13.276821 11.830418 2.125516 -0.000001 0.007516 0.000002 -0.000001 -0.000002 -8.207786 -6.751667 -1.599560 -0.077001 -0.000003 0.000080 -0.000002 -44.370110 0.345938 0.153719 -0.000000 -0.000000 0.000000 -44.423679 -3.043532 -0.076700 0.000000 -0.000002 -0.000006 -8.728667 10.710559 -0.000009 -0.000000 -0.000000 -0.000001 -0.000679 9.278123 0.000000 -0.000000 -0.000000 8.207792 -6.751710 -1.599556 -0.074518 -0.000003 0.000081 -0.000002 -44.370014 0.346960 0.148822 0.000002 0.000000 -0.000001 -44.423664 -3.044403 -0.074314 0.000000 -0.000002 -0.000004 -8.728671 10.710558 0.000007 -0.000000 -0.000000 0.000000 -0.000680 9.278137 -0.000000 0.000000 -0.000001 
0.000006 104.270477 1.554256 0.000010 0.000003 -0.000113 -0.000005 10.181587 0.131522 0.000001 -0.000003 0.000084 -0.000000 9.893967 -1.470711 0.000001 0.000000 -0.000000 -0.000000 9.220802 -1.370642 0.000000 -0.000000 -0.000000 0.000001 16.740433 -2.049030 0.000000 -0.000000 -0.000000 0.000000 9.617859 1.685014 0.000000 0.000000 0.000000 0.000002 22.037384 7.501101 0.000000 -0.000000 0.000000 -4.569968 11.014880 -2.160881 0.000008 0.000001 -0.000038 -10.592877 -0.524693 -2.232005 72.425400 12.471469 -9.148734 -27.841515 0.000016 0.000537 -53.764794 112.654791 74.536147 -28.328821 0.000022 0.000025 -0.000318 -0.000045 0.000007 -2.464397 -1.573830 2.682340 -43.470503 -157.426339 -0.141812 -3.215221 -1.872482 1.924602 147.352766 34.048414 33.735284 -2.654978 -1.527884 1.513077 149.761241 27.292399 -29.248441 -2.018834 -1.151999 1.108059 -0.000000 -0.000003 0.000002 -9.108373 -0.517561 2.260185 109.049906 15.577182 -21.794640 -3.700077 0.000324 0.001556 104.643361 13.006283 -16.762471 -2.850083 0.000368 -0.000218 103.781665 10.192398 -12.972050 -2.772184 -0.000001 -0.000016 0.000000 0.000000 -0.000001 -9.532581 0.000272 0.000291 102.374297 16.537223 -20.658518 -3.700060 0.000331 0.004022 102.065033 12.169766 -14.899241 -2.950081 0.000336 -0.001774 105.616465 10.735248 -14.107802 -2.946628 0.000001 -0.000157 0.000001 -0.000000 0.000001 -9.103691 -0.042771 -1.864822 100.203117 18.502709 -21.994715 -3.379343 0.000329 -0.000762 101.997366 8.844607 -10.931518 -2.889735 0.000354 0.000679 109.046449 5.637073 -7.966421 -2.638828 -0.000003 0.000941 0.000001 -0.000000 -0.000002 -8.076761 -0.486400 -3.805981 93.554037 19.551563 -20.614004 -3.600020 0.000308 -0.003490 95.881048 8.000311 -8.472574 -2.100004 0.000330 -0.005441 100.027000 3.425429 -3.830557 -2.115772 -0.000037 -0.003673 0.000003 -0.000001 -0.000002 4.570446 11.014691 -2.160851 -0.000018 0.000010 -0.000021 10.592360 -0.524541 -2.232275 69.550122 11.660825 -8.111393 27.841843 0.000095 -0.000217 105.752242 -66.116559 81.380604 28.328871 -0.000044 0.000036 0.000020 -0.000089 -0.000000 2.466054 -1.576159 2.681900 -25.949815 157.176709 -36.885214 3.217823 -1.871763 1.916380 162.231746 -28.833111 13.025295 2.656114 -1.528640 1.514457 143.785796 -26.483543 50.091446 2.020875 -1.154070 1.115144 0.000003 0.000002 0.000003 9.109371 -0.517836 2.259748 97.056797 -17.760049 20.035311 3.700055 0.000196 -0.000466 95.790220 -12.545269 13.887924 2.850055 0.000237 0.000199 93.841376 -9.770376 10.443433 2.774884 -0.000011 -0.000027 0.000001 -0.000002 -0.000002 9.533461 0.000252 -0.000090 96.126470 -17.325135 19.239497 3.700023 0.000215 -0.000368 95.418596 -10.830632 11.896326 2.950046 0.000227 -0.000215 95.292914 -11.059504 12.126967 2.952877 -0.000014 0.000061 0.000001 -0.000001 -0.000002 9.104582 -0.042836 -1.865206 93.944662 -17.122926 18.326376 3.150054 0.000219 -0.000106 97.516045 -11.917358 13.580362 2.950032 0.000203 -0.000087 98.833220 -10.802709 12.599653 2.644323 0.000048 0.000056 -0.000002 -0.000001 0.000001 8.077825 -0.486721 -3.806418 79.683589 -18.778828 16.216520 3.600013 0.000169 0.014563 80.868538 -15.791368 13.927282 2.100051 0.000187 0.007543 82.824698 -12.089729 11.098807 2.125505 -0.000028 0.007515 -0.000002 0.000002 -0.000001 -8.207786 -6.751667 -1.599560 -0.077001 -0.000003 0.000080 -0.000002 -44.370110 0.345938 0.153719 -0.000000 -0.000000 0.000000 -44.423679 -3.043532 -0.076700 0.000000 -0.000002 -0.000006 -8.728667 10.710559 -0.000009 -0.000000 -0.000000 -0.000001 -0.000679 9.278123 0.000000 -0.000000 -0.000000 8.207792 -6.751710 -1.599556 -0.074518 -0.000003 0.000081 -0.000002 -44.370014 0.346960 0.148822 0.000002 0.000000 -0.000001 -44.423664 -3.044403 -0.074314 0.000000 -0.000002 -0.000004 -8.728671 10.710558 0.000007 -0.000000 -0.000000 0.000000 -0.000680 9.278137 -0.000000 0.000000 -0.000001 
0.000006 104.270477 1.554256 0.000010 0.000003 -0.000113 -0.000005 10.181587 0.131522 0.000001 -0.000003 0.000084 -0.000000 9.893967 -1.470711 0.000001 0.000000 -0.000000 -0.000000 9.220802 -1.370642 0.000000 -0.000000 -0.000000 0.000001 16.740433 -2.049030 0.000000 -0.000000 -0.000000 0.000000 9.617859 1.685014 0.000000 0.000000 0.000000 0.000002 22.037384 7.501101 0.000000 -0.000000 0.000000 -4.569968 11.014880 -2.160881 0.000008 0.000001 -0.000038 -10.592880 -0.524746 -2.231935 72.107803 24.409330 -17.896330 -27.841520 0.000008 0.000538 -53.163679 108.675283 69.776045 -28.328831 0.000022 0.000028 -0.000319 -0.000048 0.000008 -2.464403 -1.573835 2.682344 -43.401454 -157.220354 -0.031945 -3.215230 -1.872481 1.924620 147.507634 34.176597 34.327878 -2.654976 -1.527888 1.513065 150.411885 27.189655 -29.370090 -2.018835 -1.152008 1.108068 -0.000005 -0.000004 0.000005 -9.108386 -0.517569 2.260154 108.858817 15.780085 -21.998590 -3.700052 0.000318 0.001530 104.292085 13.038797 -16.699647 -2.850081 0.000372 -0.000239 102.869090 9.893398 -12.389835 -2.772136 0.000002 -0.000017 0.000000 0.000001 0.000001 -9.532594 0.000261 0.000284 102.819386 16.320481 -20.551290 -3.700052 0.000329 0.004012 102.459019 11.994529 -14.786584 -2.950051 0.000350 -0.001778 104.780983 10.628315 -13.760340 -2.946619 0.000015 -0.000157 -0.000000 -0.000000 0.000001 -9.103699 -0.042763 -1.864818 101.164486 18.124131 -21.909071 -3.379312 0.000322 -0.000778 102.650449 8.902855 -11.131565 -2.889752 0.000355 0.000685 108.898234 5.646464 -7.957837 -2.638806 -0.000001 0.000937 -0.000000 -0.000001 0.000002 -8.076757 -0.486394 -3.805978 95.353095 19.378394 -21.069868 -3.600053 0.000285 -0.003491 96.939891 7.866626 -8.480889 -2.099988 0.000324 -0.005473 100.015737 3.328141 -3.714236 -2.115786 -0.000044 -0.003676 0.000000 0.000001 -0.000005 4.570446 11.014691 -2.160851 -0.000018 0.000010 -0.000021 10.592371 -0.524517 -2.232301 68.751400 -0.488114 0.333994 27.841839 0.000104 -0.000211 107.467911 -68.168703 85.370610 28.328825 -0.000044 0.000019 0.000018 -0.000089 -0.000000 2.466056 -1.576159 2.681902 -25.906315 157.702907 -37.383394 3.217862 -1.871811 1.916394 160.656732 -25.134283 30.001797 2.656088 -1.528659 1.514473 141.699146 -27.201483 48.758511 2.020902 -1.154069 1.115148 0.000000 0.000003 0.000004 9.109376 -0.517834 2.259756 96.765291 -17.917029 20.110517 3.700046 0.000186 -0.000465 95.032472 -12.380544 13.526904 2.850040 0.000228 0.000196 93.453046 -9.798294 10.402760 2.774898 -0.000042 -0.000026 0.000006 0.000001 0.000002 9.533465 0.000247 -0.000095 95.763350 -17.672425 19.501665 3.700044 0.000198 -0.000376 95.355076 -10.753178 11.798278 2.950055 0.000191 -0.000208 95.990994 -10.491280 11.645520 2.952865 -0.000029 0.000060 0.000004 0.000002 0.000000 9.104583 -0.042836 -1.865208 93.898627 -17.413917 18.622350 3.150065 0.000222 -0.000098 97.070170 -12.324052 13.934031 2.950043 0.000213 -0.000073 98.762042 -10.632307 12.385886 2.644326 0.000047 0.000053 0.000000 0.000000 -0.000000 8.077835 -0.486712 -3.806387 79.895769 -19.641536 17.009480 3.600030 0.000170 0.014575 80.053034 -17.120241 14.858814 2.100028 0.000183 0.007551 81.753717 -12.591020 11.330438 2.125527 -0.000024 0.007515 -0.000001 -0.000000 -0.000003 -8.207786 -6.751667 -1.599560 -0.077001 -0.000003 0.000080 -0.000002 -44.370110 0.345938 0.153719 -0.000000 -0.000000 0.000000 -44.423679 -3.043532 -0.076700 0.000000 -0.000002 -0.000006 -8.728667 10.710559 -0.000009 -0.000000 -0.000000 -0.000001 -0.000679 9.278123 0.000000 -0.000000 -0.000000 8.207792 -6.751710 -1.599556 -0.074518 -0.000003 0.000081 -0.000002 -44.370014 0.346960 0.148822 0.000002 0.000000 -0.000001 -44.423664 -3.044403 -0.074314 0.000000 -0.000002 -0.000004 -8.728671 10.710558 0.000007 -0.000000 -0.000000 0.000000 -0.000680 9.278137 -0.000000 0.000000 -0.000001 
